<svg width="24" height="24" viewBox="0 0 24 24" fill="none" xmlns="http://www.w3.org/2000/svg">
<path d="M16.5 14.5V19.5L12 22L7.5 19.5V14.5L12 12L16.5 14.5ZM12 15C10.8954 15 10 15.8954 10 17C10 18.1046 10.8954 19 12 19C13.1046 19 14 18.1046 14 17C14 15.8954 13.1046 15 12 15ZM12 2C15.866 2 19 5.13401 19 9V9.02832C21.2499 9.27708 23 11.1838 23 13.5C23 15.9853 20.9853 18 18.5 18V13.3232L12 9.71191L5.5 13.3232V17.9072C2.94007 17.4368 1 15.1959 1 12.5C1 9.89187 2.81477 7.70852 5.25098 7.14258C6.06524 4.17815 8.77671 2 12 2Z" fill="white"/>
</svg>
