<svg width="16" height="16" viewBox="0 0 16 16" fill="none" xmlns="http://www.w3.org/2000/svg">
<g clip-path="url(#clip0_124_410)">
<path fill-rule="evenodd" clip-rule="evenodd" d="M12 2.66663C12.5305 2.66663 13.0392 2.87734 13.4142 3.25241C13.7893 3.62749 14 4.13619 14 4.66663V7.99996C14 8.2626 13.9483 8.52267 13.8478 8.76533C13.7473 9.00798 13.6 9.22846 13.4142 9.41417C13.2285 9.59989 13.008 9.74721 12.7654 9.84772C12.5227 9.94823 12.2627 9.99996 12 9.99996H4.00003C3.4696 9.99996 2.96089 9.78925 2.58582 9.41417C2.21074 9.0391 2.00003 8.53039 2.00003 7.99996V4.66663C2.00003 4.13619 2.21074 3.62749 2.58582 3.25241C2.96089 2.87734 3.4696 2.66663 4.00003 2.66663H12ZM12 3.99996H4.00003C3.83674 3.99998 3.67914 4.05993 3.55712 4.16844C3.43509 4.27694 3.35714 4.42646 3.33803 4.58863L3.33336 4.66663V7.99996C3.33339 8.16325 3.39333 8.32085 3.50184 8.44287C3.61035 8.5649 3.75986 8.64285 3.92203 8.66196L4.00003 8.66663V7.33329C4.00005 7.17 4.06 7.0124 4.16851 6.89038C4.27701 6.76835 4.42653 6.6904 4.5887 6.67129L4.6667 6.66663H11.3334C11.4967 6.66665 11.6543 6.7266 11.7763 6.8351C11.8983 6.94361 11.9763 7.09313 11.9954 7.25529L12 7.33329V8.66663C12.1633 8.6666 12.3209 8.60666 12.4429 8.49815C12.565 8.38964 12.6429 8.24013 12.662 8.07796L12.6667 7.99996V4.66663C12.6667 4.50334 12.6067 4.34573 12.4982 4.22371C12.3897 4.10169 12.2402 4.02373 12.078 4.00463L12 3.99996ZM10.6667 7.99996H5.33336V8.66663H10.6667V7.99996ZM10.6667 4.66663C10.8435 4.66663 11.0131 4.73686 11.1381 4.86189C11.2631 4.98691 11.3334 5.15648 11.3334 5.33329C11.3334 5.5101 11.2631 5.67967 11.1381 5.8047C11.0131 5.92972 10.8435 5.99996 10.6667 5.99996C10.4899 5.99996 10.3203 5.92972 10.1953 5.8047C10.0703 5.67967 10 5.5101 10 5.33329C10 5.15648 10.0703 4.98691 10.1953 4.86189C10.3203 4.73686 10.4899 4.66663 10.6667 4.66663ZM6.6667 10.6666C6.84351 10.6666 7.01308 10.7369 7.1381 10.8619C7.26313 10.9869 7.33336 11.1565 7.33336 11.3333V12.1146C7.33307 12.6448 7.1223 13.1531 6.74736 13.528L6.47136 13.8046C6.34563 13.9261 6.17723 13.9933 6.00243 13.9917C5.82763 13.9902 5.66042 13.9201 5.53682 13.7965C5.41321 13.6729 5.3431 13.5057 5.34158 13.3309C5.34006 13.1561 5.40726 12.9877 5.5287 12.862L5.8047 12.586C5.92973 12.461 5.99999 12.2914 6.00003 12.1146V11.3333C6.00003 11.1565 6.07027 10.9869 6.19529 10.8619C6.32032 10.7369 6.48989 10.6666 6.6667 10.6666ZM8.6667 11.3333C8.6667 11.1565 8.73694 10.9869 8.86196 10.8619C8.98698 10.7369 9.15655 10.6666 9.33336 10.6666C9.51018 10.6666 9.67974 10.7369 9.80477 10.8619C9.92979 10.9869 10 11.1565 10 11.3333V12.1146C10.0001 12.2914 10.0703 12.461 10.1954 12.586L10.4714 12.862C10.535 12.9235 10.5858 12.997 10.6208 13.0784C10.6557 13.1597 10.6741 13.2472 10.6749 13.3357C10.6756 13.4242 10.6588 13.512 10.6252 13.5939C10.5917 13.6759 10.5422 13.7503 10.4796 13.8129C10.417 13.8755 10.3426 13.925 10.2607 13.9585C10.1787 13.992 10.0909 14.0089 10.0024 14.0081C9.91391 14.0074 9.82643 13.989 9.74509 13.954C9.66376 13.9191 9.5902 13.8683 9.5287 13.8046L9.2527 13.5286C8.8776 13.1536 8.66681 12.645 8.6667 12.1146V11.3333ZM4.00003 10.6666C4.17684 10.6666 4.34641 10.7369 4.47144 10.8619C4.59646 10.9869 4.6667 11.1565 4.6667 11.3333V11.742C4.66663 12.0218 4.57851 12.2945 4.41483 12.5215C4.25114 12.7485 4.0202 12.9182 3.7547 13.0066L2.87736 13.2993C2.70957 13.3552 2.52645 13.3421 2.3683 13.263C2.21014 13.1838 2.0899 13.0451 2.03403 12.8773C1.97816 12.7095 1.99123 12.5264 2.07037 12.3682C2.14951 12.2101 2.28824 12.0898 2.45603 12.034L3.33336 11.742V11.3333C3.33336 11.1565 3.4036 10.9869 3.52863 10.8619C3.65365 10.7369 3.82322 10.6666 4.00003 10.6666ZM11.3334 11.3333C11.3334 11.1565 11.4036 10.9869 11.5286 10.8619C11.6537 10.7369 11.8232 10.6666 12 10.6666C12.1768 10.6666 12.3464 10.7369 12.4714 10.8619C12.5965 10.9869 12.6667 11.1565 12.6667 11.3333V11.742L13.544 12.034C13.7118 12.0898 13.8505 12.2101 13.9297 12.3682C14.0088 12.5264 14.0219 12.7095 13.966 12.8773C13.9102 13.0451 13.7899 13.1838 13.6318 13.263C13.4736 13.3421 13.2905 13.3552 13.1227 13.2993L12.2454 13.006C11.9801 12.9176 11.7493 12.7481 11.5856 12.5214C11.422 12.2947 11.3337 12.0222 11.3334 11.7426V11.3333Z" fill="black"/>
</g>
<defs>
<clipPath id="clip0_124_410">
<rect width="16" height="16" fill="white"/>
</clipPath>
</defs>
</svg>
