<svg width="22" height="22" viewBox="0 0 22 22" fill="none" xmlns="http://www.w3.org/2000/svg">
  <path d="M7.43571 20.6212C8.32121 20.6212 9.03905 19.9033 9.03905 19.0178C9.03905 18.1323 8.32121 17.4144 7.43571 17.4144C6.55021 17.4144 5.83228 18.1323 5.83228 19.0178C5.83228 19.9033 6.55021 20.6212 7.43571 20.6212Z" fill="white"/>
  <path d="M18.6607 20.6212C19.5462 20.6212 20.2641 19.9033 20.2641 19.0178C20.2641 18.1323 19.5462 17.4144 18.6607 17.4144C17.7752 17.4144 17.0574 18.1323 17.0574 19.0178C17.0574 19.9033 17.7752 20.6212 18.6607 20.6212Z" fill="white"/>
  <path d="M21.5063 4.22395C21.3936 4.08618 21.2517 3.97526 21.0909 3.89918C20.93 3.8231 20.7542 3.78377 20.5763 3.78404H5.32558L5.0184 2.04123C4.98563 1.85561 4.88851 1.68744 4.74409 1.56631C4.59967 1.44517 4.4172 1.37876 4.22869 1.3788H1.02173C0.809067 1.3788 0.605154 1.46327 0.454775 1.61365C0.304396 1.76403 0.219971 1.9679 0.219971 2.18057C0.219971 2.39319 0.304442 2.5971 0.454775 2.74748C0.605154 2.89781 0.809067 2.98228 1.02173 2.98228H3.55622L5.84422 15.9495C5.877 16.1352 5.97412 16.3033 6.11854 16.4244C6.26291 16.5456 6.44542 16.612 6.63393 16.6119H19.4618C19.6744 16.6119 19.8784 16.5275 20.0288 16.3771C20.1791 16.2267 20.2636 16.0228 20.2636 15.8102C20.2636 15.5976 20.1791 15.3936 20.0288 15.2433C19.8784 15.093 19.6744 15.0085 19.4618 15.0085H7.3064L7.02375 13.405H19.1331C19.4112 13.4046 19.6806 13.3082 19.8957 13.132C20.1108 12.9559 20.2585 12.7109 20.3137 12.4384L21.7568 5.22271C21.7916 5.04799 21.7872 4.86782 21.7439 4.69517C21.7005 4.52242 21.6194 4.36155 21.5063 4.22395Z" fill="white"/>
</svg>