<svg width="24" height="24" viewBox="0 0 24 24" fill="none" xmlns="http://www.w3.org/2000/svg">
<g clip-path="url(#clip0_62_413)">
<path d="M23.76 12.0437C23.76 5.54813 18.4956 0.283691 12 0.283691C5.50443 0.283691 0.23999 5.54813 0.23999 12.0437C0.23999 17.5562 4.03902 22.1867 9.16105 23.4592V15.636H6.73555V12.0437H9.16105V10.4956C9.16105 6.49444 10.971 4.63857 14.9032 4.63857C15.6474 4.63857 16.9337 4.78557 17.462 4.93257V8.18494C17.1863 8.15738 16.704 8.139 16.1022 8.139C14.1728 8.139 13.4286 8.86941 13.4286 10.7666V12.0437H17.269L16.6075 15.636H13.4241V23.7164C19.2489 23.0136 23.76 18.0569 23.76 12.0437Z" fill="black"/>
</g>
<defs>
<clipPath id="clip0_62_413">
<rect width="24" height="24" fill="white"/>
</clipPath>
</defs>
</svg>
