<svg width="24" height="24" viewBox="0 0 24 24" fill="none" xmlns="http://www.w3.org/2000/svg">
<g clip-path="url(#clip0_62_415)">
<path d="M18.2798 4.30923C18.0008 4.30923 17.7279 4.39193 17.4958 4.54703C17.2638 4.70213 17.0829 4.92253 16.976 5.18033C16.8692 5.43823 16.8414 5.72193 16.8958 5.99573C16.9503 6.26943 17.0846 6.52093 17.282 6.71824C17.4793 6.91563 17.7308 7.05003 18.0045 7.10443C18.2783 7.15893 18.562 7.13103 18.8199 7.02413C19.0778 6.91733 19.2981 6.73643 19.4532 6.50443C19.6082 6.27234 19.691 5.99953 19.691 5.72043C19.691 5.34613 19.5424 4.98713 19.2777 4.72253C19.0131 4.45783 18.6542 4.30923 18.2798 4.30923ZM23.6894 7.15513C23.6666 6.17943 23.4839 5.21403 23.1485 4.29743C22.8494 3.51323 22.3841 2.80303 21.7843 2.21593C21.202 1.61313 20.4903 1.15063 19.7028 0.863534C18.7887 0.517934 17.8221 0.331034 16.8451 0.310834C15.5986 0.240234 15.1987 0.240234 12 0.240234C8.80129 0.240234 8.40139 0.240234 7.15489 0.310834C6.17779 0.331034 5.21139 0.517934 4.29719 0.863534C3.51129 1.15353 2.80009 1.61563 2.21569 2.21593C1.61289 2.79823 1.15039 3.51003 0.86329 4.29743C0.51769 5.21163 0.33079 6.17803 0.31059 7.15513C0.23999 8.40163 0.23999 8.80153 0.23999 12.0002C0.23999 15.1989 0.23999 15.5988 0.31059 16.8453C0.33079 17.8223 0.51769 18.7889 0.86329 19.703C1.15039 20.4905 1.61289 21.2022 2.21569 21.7845C2.80009 22.3848 3.51129 22.8469 4.29719 23.1369C5.21139 23.4824 6.17779 23.6694 7.15489 23.6896C8.40139 23.7602 8.80129 23.7602 12 23.7602C15.1987 23.7602 15.5986 23.7602 16.8451 23.6896C17.8221 23.6694 18.7887 23.4824 19.7028 23.1369C20.4903 22.8497 21.202 22.3873 21.7843 21.7845C22.3867 21.1996 22.8525 20.4888 23.1485 19.703C23.4839 18.7864 23.6666 17.8211 23.6894 16.8453C23.6894 15.5988 23.76 15.1989 23.76 12.0002C23.76 8.80153 23.76 8.40163 23.6894 7.15513ZM21.5726 16.7042C21.5641 17.4507 21.4289 18.1903 21.1728 18.8916C20.985 19.4034 20.6835 19.8658 20.2908 20.244C19.9093 20.6326 19.4478 20.9336 18.9384 21.126C18.2372 21.3821 17.4976 21.5172 16.751 21.5258C15.575 21.5846 15.1399 21.5964 12.047 21.5964C8.95409 21.5964 8.51899 21.5964 7.34299 21.5258C6.56789 21.5403 5.79609 21.421 5.06159 21.173C4.57449 20.9709 4.13419 20.6706 3.76799 20.291C3.37769 19.9132 3.07979 19.4504 2.89779 18.9386C2.61059 18.2274 2.45139 17.4708 2.42739 16.7042C2.42739 15.5282 2.35679 15.0931 2.35679 12.0002C2.35679 8.90733 2.35679 8.47223 2.42739 7.29623C2.43259 6.53313 2.57189 5.77683 2.83899 5.06183C3.04599 4.56543 3.36379 4.12303 3.76799 3.76823C4.12529 3.36393 4.56679 3.04273 5.06159 2.82743C5.77839 2.56873 6.53389 2.43353 7.29599 2.42763C8.47199 2.42763 8.90709 2.35703 12 2.35703C15.0929 2.35703 15.528 2.35703 16.704 2.42763C17.4505 2.43613 18.1901 2.57133 18.8914 2.82743C19.4257 3.02573 19.9054 3.34823 20.2908 3.76823C20.6762 4.12943 20.9774 4.57113 21.1728 5.06183C21.4342 5.77793 21.5695 6.53393 21.5726 7.29623C21.6314 8.47223 21.6432 8.90733 21.6432 12.0002C21.6432 15.0931 21.6314 15.5282 21.5726 16.7042ZM12 5.96733C10.8073 5.96973 9.64209 6.32553 8.65149 6.98983C7.66099 7.65413 6.88959 8.59713 6.43469 9.69973C5.97989 10.8022 5.86209 12.0149 6.09619 13.1843C6.33039 14.3538 6.90589 15.4277 7.74999 16.2703C8.59419 17.1128 9.66919 17.6862 10.8392 17.918C12.0091 18.1499 13.2215 18.0297 14.3232 17.5727C15.4249 17.1158 16.3664 16.3425 17.0287 15.3506C17.6912 14.3588 18.0447 13.1929 18.0447 12.0002C18.0462 11.2065 17.8908 10.4204 17.5874 9.68703C17.2841 8.95363 16.8388 8.28743 16.277 7.72673C15.7152 7.16603 15.0481 6.72203 14.3142 6.42003C13.5801 6.11813 12.7937 5.96423 12 5.96733ZM12 15.9163C11.2255 15.9163 10.4684 15.6866 9.82439 15.2563C9.18039 14.826 8.67839 14.2144 8.38199 13.4988C8.08559 12.7833 8.00809 11.9959 8.15919 11.2362C8.31029 10.4766 8.68319 9.77874 9.23089 9.23113C9.77849 8.68353 10.4764 8.31053 11.236 8.15943C11.9957 8.00833 12.7831 8.08583 13.4986 8.38223C14.2142 8.67863 14.8258 9.18063 15.2561 9.82463C15.6864 10.4686 15.9161 11.2257 15.9161 12.0002C15.9161 12.5145 15.8148 13.0237 15.618 13.4988C15.4212 13.974 15.1327 14.4056 14.7691 14.7693C14.4054 15.133 13.9738 15.4214 13.4986 15.6182C13.0235 15.815 12.5143 15.9163 12 15.9163Z" fill="black"/>
</g>
<defs>
<clipPath id="clip0_62_415">
<rect width="24" height="24" fill="white"/>
</clipPath>
</defs>
</svg>
