<svg width="12" height="12" viewBox="0 0 12 12" fill="none" xmlns="http://www.w3.org/2000/svg">
<path d="M1.11598 5.02414C2.38408 3.8075 4.10428 3.05951 6.00091 3.05951C7.89755 3.05951 9.61775 3.8075 10.8858 5.02414C11.1211 5.24835 11.4923 5.241 11.7165 5.0076C11.9408 4.77419 11.9334 4.40112 11.7 4.1769C10.2224 2.75627 8.21365 1.8833 6.00091 1.8833C3.78818 1.8833 1.77944 2.75627 0.299989 4.17506C0.0665857 4.40112 0.0592339 4.77236 0.283448 5.0076C0.507663 5.24284 0.880741 5.25019 1.11414 5.02414H1.11598ZM6.00091 6.00002C7.0448 6.00002 7.99679 6.3878 8.72457 7.0292C8.969 7.24423 9.34024 7.22034 9.55526 6.97775C9.77029 6.73515 9.7464 6.36207 9.5038 6.14705C8.57019 5.3237 7.34253 4.82382 6.00091 4.82382C4.6593 4.82382 3.43164 5.3237 2.49986 6.14705C2.25543 6.36207 2.23338 6.73331 2.4484 6.97774C2.66343 7.22217 3.03467 7.24423 3.2791 7.0292C4.00504 6.3878 4.95703 6.00002 6.00275 6.00002H6.00091ZM7.17712 8.94054C7.17712 8.0351 6.19695 7.46919 5.41281 7.92191C5.04889 8.13202 4.82471 8.52032 4.82471 8.94054C4.82471 9.84598 5.80488 10.4119 6.58902 9.95916C6.95294 9.74905 7.17712 9.36076 7.17712 8.94054Z" fill="black"/>
</svg>
